<mxfile host="65bd71144e">
    <diagram id="Pcr55207pkbu55kxB37q" name="Page-3">
        <mxGraphModel dx="684" dy="567" grid="1" gridSize="10" guides="1" tooltips="1" connect="1" arrows="1" fold="1" page="1" pageScale="1" pageWidth="850" pageHeight="1100" math="0" shadow="0">
            <root>
                <mxCell id="C7UfMqMpQ-dJx82m4tEN-0"/>
                <mxCell id="C7UfMqMpQ-dJx82m4tEN-1" parent="C7UfMqMpQ-dJx82m4tEN-0"/>
                <mxCell id="C7UfMqMpQ-dJx82m4tEN-36" style="edgeStyle=none;html=1;exitX=1;exitY=1;exitDx=0;exitDy=0;entryX=0;entryY=1;entryDx=0;entryDy=0;" edge="1" parent="C7UfMqMpQ-dJx82m4tEN-1" source="C7UfMqMpQ-dJx82m4tEN-3" target="C7UfMqMpQ-dJx82m4tEN-9">
                    <mxGeometry relative="1" as="geometry"/>
                </mxCell>
                <mxCell id="C7UfMqMpQ-dJx82m4tEN-3" value="" style="rounded=0;whiteSpace=wrap;html=1;fillColor=#d5e8d4;strokeColor=#82b366;" vertex="1" parent="C7UfMqMpQ-dJx82m4tEN-1">
                    <mxGeometry x="40" y="80" width="40" height="280" as="geometry"/>
                </mxCell>
                <mxCell id="C7UfMqMpQ-dJx82m4tEN-31" style="edgeStyle=none;html=1;exitX=1;exitY=1;exitDx=0;exitDy=0;entryX=0;entryY=1;entryDx=0;entryDy=0;" edge="1" parent="C7UfMqMpQ-dJx82m4tEN-1" source="C7UfMqMpQ-dJx82m4tEN-5" target="C7UfMqMpQ-dJx82m4tEN-25">
                    <mxGeometry relative="1" as="geometry"/>
                </mxCell>
                <mxCell id="C7UfMqMpQ-dJx82m4tEN-5" value="784" style="text;html=1;strokeColor=none;fillColor=none;align=center;verticalAlign=middle;whiteSpace=wrap;rounded=0;" vertex="1" parent="C7UfMqMpQ-dJx82m4tEN-1">
                    <mxGeometry x="40" y="50" width="40" height="30" as="geometry"/>
                </mxCell>
                <mxCell id="C7UfMqMpQ-dJx82m4tEN-37" style="edgeStyle=none;html=1;exitX=1;exitY=1;exitDx=0;exitDy=0;entryX=0;entryY=1;entryDx=0;entryDy=0;" edge="1" parent="C7UfMqMpQ-dJx82m4tEN-1" source="C7UfMqMpQ-dJx82m4tEN-9" target="C7UfMqMpQ-dJx82m4tEN-20">
                    <mxGeometry relative="1" as="geometry"/>
                </mxCell>
                <mxCell id="C7UfMqMpQ-dJx82m4tEN-9" value="" style="rounded=0;whiteSpace=wrap;html=1;fillColor=#d5e8d4;strokeColor=#82b366;" vertex="1" parent="C7UfMqMpQ-dJx82m4tEN-1">
                    <mxGeometry x="120" y="120" width="40" height="200" as="geometry"/>
                </mxCell>
                <mxCell id="C7UfMqMpQ-dJx82m4tEN-46" style="edgeStyle=none;html=1;exitX=1;exitY=1;exitDx=0;exitDy=0;entryX=0;entryY=1;entryDx=0;entryDy=0;" edge="1" parent="C7UfMqMpQ-dJx82m4tEN-1" source="C7UfMqMpQ-dJx82m4tEN-20" target="C7UfMqMpQ-dJx82m4tEN-21">
                    <mxGeometry relative="1" as="geometry"/>
                </mxCell>
                <mxCell id="C7UfMqMpQ-dJx82m4tEN-20" value="" style="rounded=0;whiteSpace=wrap;html=1;fillColor=#f8cecc;strokeColor=#b85450;" vertex="1" parent="C7UfMqMpQ-dJx82m4tEN-1">
                    <mxGeometry x="200" y="120" width="40" height="200" as="geometry"/>
                </mxCell>
                <mxCell id="C7UfMqMpQ-dJx82m4tEN-41" style="edgeStyle=none;html=1;exitX=1;exitY=1;exitDx=0;exitDy=0;entryX=0;entryY=1;entryDx=0;entryDy=0;" edge="1" parent="C7UfMqMpQ-dJx82m4tEN-1" source="C7UfMqMpQ-dJx82m4tEN-21" target="C7UfMqMpQ-dJx82m4tEN-22">
                    <mxGeometry relative="1" as="geometry"/>
                </mxCell>
                <mxCell id="C7UfMqMpQ-dJx82m4tEN-21" value="" style="rounded=0;whiteSpace=wrap;html=1;fillColor=#d5e8d4;strokeColor=#82b366;" vertex="1" parent="C7UfMqMpQ-dJx82m4tEN-1">
                    <mxGeometry x="280" y="160" width="40" height="120" as="geometry"/>
                </mxCell>
                <mxCell id="C7UfMqMpQ-dJx82m4tEN-42" style="edgeStyle=none;html=1;exitX=1;exitY=1;exitDx=0;exitDy=0;entryX=0;entryY=1;entryDx=0;entryDy=0;" edge="1" parent="C7UfMqMpQ-dJx82m4tEN-1" source="C7UfMqMpQ-dJx82m4tEN-22" target="C7UfMqMpQ-dJx82m4tEN-32">
                    <mxGeometry relative="1" as="geometry"/>
                </mxCell>
                <mxCell id="C7UfMqMpQ-dJx82m4tEN-50" style="edgeStyle=none;html=1;exitX=1;exitY=0;exitDx=0;exitDy=0;entryX=0;entryY=1;entryDx=0;entryDy=0;" edge="1" parent="C7UfMqMpQ-dJx82m4tEN-1" source="C7UfMqMpQ-dJx82m4tEN-22" target="C7UfMqMpQ-dJx82m4tEN-34">
                    <mxGeometry relative="1" as="geometry"/>
                </mxCell>
                <mxCell id="C7UfMqMpQ-dJx82m4tEN-22" value="" style="rounded=0;whiteSpace=wrap;html=1;fillColor=#f8cecc;strokeColor=#b85450;" vertex="1" parent="C7UfMqMpQ-dJx82m4tEN-1">
                    <mxGeometry x="360" y="160" width="40" height="120" as="geometry"/>
                </mxCell>
                <mxCell id="C7UfMqMpQ-dJx82m4tEN-39" style="edgeStyle=none;html=1;exitX=1;exitY=1;exitDx=0;exitDy=0;entryX=0;entryY=1;entryDx=0;entryDy=0;" edge="1" parent="C7UfMqMpQ-dJx82m4tEN-1" source="C7UfMqMpQ-dJx82m4tEN-23">
                    <mxGeometry relative="1" as="geometry">
                        <mxPoint x="360" y="320" as="targetPoint"/>
                    </mxGeometry>
                </mxCell>
                <mxCell id="C7UfMqMpQ-dJx82m4tEN-48" style="edgeStyle=none;html=1;exitX=1;exitY=1;exitDx=0;exitDy=0;entryX=0;entryY=1;entryDx=0;entryDy=0;" edge="1" parent="C7UfMqMpQ-dJx82m4tEN-1" source="C7UfMqMpQ-dJx82m4tEN-25" target="C7UfMqMpQ-dJx82m4tEN-27">
                    <mxGeometry relative="1" as="geometry"/>
                </mxCell>
                <mxCell id="C7UfMqMpQ-dJx82m4tEN-25" value="256" style="text;html=1;strokeColor=none;fillColor=none;align=center;verticalAlign=middle;whiteSpace=wrap;rounded=0;" vertex="1" parent="C7UfMqMpQ-dJx82m4tEN-1">
                    <mxGeometry x="120" y="90" width="40" height="30" as="geometry"/>
                </mxCell>
                <mxCell id="C7UfMqMpQ-dJx82m4tEN-47" style="edgeStyle=none;html=1;exitX=1;exitY=1;exitDx=0;exitDy=0;entryX=0;entryY=1;entryDx=0;entryDy=0;" edge="1" parent="C7UfMqMpQ-dJx82m4tEN-1" source="C7UfMqMpQ-dJx82m4tEN-27" target="C7UfMqMpQ-dJx82m4tEN-29">
                    <mxGeometry relative="1" as="geometry"/>
                </mxCell>
                <mxCell id="C7UfMqMpQ-dJx82m4tEN-27" value="Relu" style="text;html=1;strokeColor=none;fillColor=none;align=center;verticalAlign=middle;whiteSpace=wrap;rounded=0;" vertex="1" parent="C7UfMqMpQ-dJx82m4tEN-1">
                    <mxGeometry x="200" y="90" width="40" height="30" as="geometry"/>
                </mxCell>
                <mxCell id="C7UfMqMpQ-dJx82m4tEN-49" style="edgeStyle=none;html=1;exitX=1;exitY=1;exitDx=0;exitDy=0;entryX=0;entryY=1;entryDx=0;entryDy=0;" edge="1" parent="C7UfMqMpQ-dJx82m4tEN-1" source="C7UfMqMpQ-dJx82m4tEN-29" target="C7UfMqMpQ-dJx82m4tEN-30">
                    <mxGeometry relative="1" as="geometry"/>
                </mxCell>
                <mxCell id="C7UfMqMpQ-dJx82m4tEN-29" value="64" style="text;html=1;strokeColor=none;fillColor=none;align=center;verticalAlign=middle;whiteSpace=wrap;rounded=0;" vertex="1" parent="C7UfMqMpQ-dJx82m4tEN-1">
                    <mxGeometry x="280" y="130" width="40" height="30" as="geometry"/>
                </mxCell>
                <mxCell id="C7UfMqMpQ-dJx82m4tEN-30" value="Relu" style="text;html=1;strokeColor=none;fillColor=none;align=center;verticalAlign=middle;whiteSpace=wrap;rounded=0;" vertex="1" parent="C7UfMqMpQ-dJx82m4tEN-1">
                    <mxGeometry x="360" y="130" width="40" height="30" as="geometry"/>
                </mxCell>
                <mxCell id="C7UfMqMpQ-dJx82m4tEN-44" style="edgeStyle=none;html=1;exitX=1;exitY=1;exitDx=0;exitDy=0;entryX=0;entryY=1;entryDx=0;entryDy=0;" edge="1" parent="C7UfMqMpQ-dJx82m4tEN-1" source="C7UfMqMpQ-dJx82m4tEN-32" target="C7UfMqMpQ-dJx82m4tEN-33">
                    <mxGeometry relative="1" as="geometry"/>
                </mxCell>
                <mxCell id="C7UfMqMpQ-dJx82m4tEN-45" style="edgeStyle=none;html=1;exitX=1;exitY=0;exitDx=0;exitDy=0;entryX=0;entryY=1;entryDx=0;entryDy=0;" edge="1" parent="C7UfMqMpQ-dJx82m4tEN-1" source="C7UfMqMpQ-dJx82m4tEN-32" target="C7UfMqMpQ-dJx82m4tEN-35">
                    <mxGeometry relative="1" as="geometry"/>
                </mxCell>
                <mxCell id="C7UfMqMpQ-dJx82m4tEN-32" value="" style="rounded=0;whiteSpace=wrap;html=1;fillColor=#d5e8d4;strokeColor=#82b366;" vertex="1" parent="C7UfMqMpQ-dJx82m4tEN-1">
                    <mxGeometry x="440" y="200" width="40" height="40" as="geometry"/>
                </mxCell>
                <mxCell id="C7UfMqMpQ-dJx82m4tEN-33" value="" style="rounded=0;whiteSpace=wrap;html=1;fillColor=#f8cecc;strokeColor=#b85450;" vertex="1" parent="C7UfMqMpQ-dJx82m4tEN-1">
                    <mxGeometry x="520" y="200" width="40" height="40" as="geometry"/>
                </mxCell>
                <mxCell id="C7UfMqMpQ-dJx82m4tEN-34" value="10" style="text;html=1;strokeColor=none;fillColor=none;align=center;verticalAlign=middle;whiteSpace=wrap;rounded=0;" vertex="1" parent="C7UfMqMpQ-dJx82m4tEN-1">
                    <mxGeometry x="440" y="170" width="40" height="30" as="geometry"/>
                </mxCell>
                <mxCell id="C7UfMqMpQ-dJx82m4tEN-35" value="Softmax" style="text;html=1;strokeColor=none;fillColor=none;align=center;verticalAlign=middle;whiteSpace=wrap;rounded=0;" vertex="1" parent="C7UfMqMpQ-dJx82m4tEN-1">
                    <mxGeometry x="520" y="170" width="40" height="30" as="geometry"/>
                </mxCell>
            </root>
        </mxGraphModel>
    </diagram>
    <diagram id="rWfiNqzzU7XrF5lanHZ8" name="Page-2">
        <mxGraphModel dx="684" dy="567" grid="1" gridSize="10" guides="1" tooltips="1" connect="1" arrows="1" fold="1" page="1" pageScale="1" pageWidth="850" pageHeight="1100" math="0" shadow="0">
            <root>
                <mxCell id="r-rebLX8pUsJy-9zKnh2-0"/>
                <mxCell id="r-rebLX8pUsJy-9zKnh2-1" parent="r-rebLX8pUsJy-9zKnh2-0"/>
                <mxCell id="r-rebLX8pUsJy-9zKnh2-2" style="edgeStyle=none;html=1;exitX=1;exitY=1;exitDx=0;exitDy=0;entryX=0;entryY=1;entryDx=0;entryDy=0;" edge="1" parent="r-rebLX8pUsJy-9zKnh2-1" source="r-rebLX8pUsJy-9zKnh2-3" target="r-rebLX8pUsJy-9zKnh2-9">
                    <mxGeometry relative="1" as="geometry"/>
                </mxCell>
                <mxCell id="r-rebLX8pUsJy-9zKnh2-3" value="" style="rounded=0;whiteSpace=wrap;html=1;fillColor=#d5e8d4;strokeColor=#82b366;" vertex="1" parent="r-rebLX8pUsJy-9zKnh2-1">
                    <mxGeometry x="40" y="80" width="40" height="280" as="geometry"/>
                </mxCell>
                <mxCell id="r-rebLX8pUsJy-9zKnh2-4" style="edgeStyle=none;html=1;exitX=1;exitY=1;exitDx=0;exitDy=0;entryX=0;entryY=1;entryDx=0;entryDy=0;" edge="1" parent="r-rebLX8pUsJy-9zKnh2-1" source="r-rebLX8pUsJy-9zKnh2-5" target="r-rebLX8pUsJy-9zKnh2-6">
                    <mxGeometry relative="1" as="geometry"/>
                </mxCell>
                <mxCell id="r-rebLX8pUsJy-9zKnh2-5" value="784" style="text;html=1;strokeColor=none;fillColor=none;align=center;verticalAlign=middle;whiteSpace=wrap;rounded=0;" vertex="1" parent="r-rebLX8pUsJy-9zKnh2-1">
                    <mxGeometry x="40" y="50" width="40" height="30" as="geometry"/>
                </mxCell>
                <mxCell id="r-rebLX8pUsJy-9zKnh2-6" value="64" style="text;html=1;strokeColor=none;fillColor=none;align=center;verticalAlign=middle;whiteSpace=wrap;rounded=0;" vertex="1" parent="r-rebLX8pUsJy-9zKnh2-1">
                    <mxGeometry x="120" y="130" width="40" height="30" as="geometry"/>
                </mxCell>
                <mxCell id="r-rebLX8pUsJy-9zKnh2-7" style="edgeStyle=none;html=1;exitX=1;exitY=1;exitDx=0;exitDy=0;entryX=0;entryY=1;entryDx=0;entryDy=0;" edge="1" parent="r-rebLX8pUsJy-9zKnh2-1" source="r-rebLX8pUsJy-9zKnh2-9" target="r-rebLX8pUsJy-9zKnh2-12">
                    <mxGeometry relative="1" as="geometry"/>
                </mxCell>
                <mxCell id="r-rebLX8pUsJy-9zKnh2-8" style="edgeStyle=none;html=1;exitX=1;exitY=0;exitDx=0;exitDy=0;entryX=0.25;entryY=1;entryDx=0;entryDy=0;" edge="1" parent="r-rebLX8pUsJy-9zKnh2-1" source="r-rebLX8pUsJy-9zKnh2-9" target="r-rebLX8pUsJy-9zKnh2-17">
                    <mxGeometry relative="1" as="geometry"/>
                </mxCell>
                <mxCell id="r-rebLX8pUsJy-9zKnh2-9" value="" style="rounded=0;whiteSpace=wrap;html=1;fillColor=#d5e8d4;strokeColor=#82b366;" vertex="1" parent="r-rebLX8pUsJy-9zKnh2-1">
                    <mxGeometry x="120" y="160" width="40" height="120" as="geometry"/>
                </mxCell>
                <mxCell id="r-rebLX8pUsJy-9zKnh2-10" style="edgeStyle=none;html=1;exitX=1;exitY=1;exitDx=0;exitDy=0;entryX=0;entryY=1;entryDx=0;entryDy=0;" edge="1" parent="r-rebLX8pUsJy-9zKnh2-1" source="r-rebLX8pUsJy-9zKnh2-12" target="r-rebLX8pUsJy-9zKnh2-15">
                    <mxGeometry relative="1" as="geometry"/>
                </mxCell>
                <mxCell id="r-rebLX8pUsJy-9zKnh2-11" style="edgeStyle=none;html=1;exitX=1;exitY=0;exitDx=0;exitDy=0;entryX=0;entryY=0;entryDx=0;entryDy=0;" edge="1" parent="r-rebLX8pUsJy-9zKnh2-1" source="r-rebLX8pUsJy-9zKnh2-12" target="r-rebLX8pUsJy-9zKnh2-15">
                    <mxGeometry relative="1" as="geometry"/>
                </mxCell>
                <mxCell id="r-rebLX8pUsJy-9zKnh2-12" value="" style="rounded=0;whiteSpace=wrap;html=1;fillColor=#f8cecc;strokeColor=#b85450;" vertex="1" parent="r-rebLX8pUsJy-9zKnh2-1">
                    <mxGeometry x="200" y="160" width="40" height="120" as="geometry"/>
                </mxCell>
                <mxCell id="r-rebLX8pUsJy-9zKnh2-13" style="edgeStyle=none;html=1;exitX=1;exitY=1;exitDx=0;exitDy=0;entryX=0;entryY=1;entryDx=0;entryDy=0;" edge="1" parent="r-rebLX8pUsJy-9zKnh2-1" source="r-rebLX8pUsJy-9zKnh2-15" target="r-rebLX8pUsJy-9zKnh2-16">
                    <mxGeometry relative="1" as="geometry"/>
                </mxCell>
                <mxCell id="r-rebLX8pUsJy-9zKnh2-14" style="edgeStyle=none;html=1;exitX=1;exitY=0;exitDx=0;exitDy=0;entryX=0;entryY=0;entryDx=0;entryDy=0;" edge="1" parent="r-rebLX8pUsJy-9zKnh2-1" source="r-rebLX8pUsJy-9zKnh2-15" target="r-rebLX8pUsJy-9zKnh2-16">
                    <mxGeometry relative="1" as="geometry"/>
                </mxCell>
                <mxCell id="r-rebLX8pUsJy-9zKnh2-15" value="" style="rounded=0;whiteSpace=wrap;html=1;fillColor=#d5e8d4;strokeColor=#82b366;" vertex="1" parent="r-rebLX8pUsJy-9zKnh2-1">
                    <mxGeometry x="280" y="200" width="40" height="40" as="geometry"/>
                </mxCell>
                <mxCell id="r-rebLX8pUsJy-9zKnh2-16" value="" style="rounded=0;whiteSpace=wrap;html=1;fillColor=#f8cecc;strokeColor=#b85450;" vertex="1" parent="r-rebLX8pUsJy-9zKnh2-1">
                    <mxGeometry x="360" y="200" width="40" height="40" as="geometry"/>
                </mxCell>
                <mxCell id="r-rebLX8pUsJy-9zKnh2-17" value="Sigmoid" style="text;html=1;strokeColor=none;fillColor=none;align=center;verticalAlign=middle;whiteSpace=wrap;rounded=0;" vertex="1" parent="r-rebLX8pUsJy-9zKnh2-1">
                    <mxGeometry x="190" y="130" width="60" height="30" as="geometry"/>
                </mxCell>
                <mxCell id="r-rebLX8pUsJy-9zKnh2-18" value="10" style="text;html=1;strokeColor=none;fillColor=none;align=center;verticalAlign=middle;whiteSpace=wrap;rounded=0;" vertex="1" parent="r-rebLX8pUsJy-9zKnh2-1">
                    <mxGeometry x="270" y="170" width="60" height="30" as="geometry"/>
                </mxCell>
                <mxCell id="r-rebLX8pUsJy-9zKnh2-19" value="Softmax" style="text;html=1;strokeColor=none;fillColor=none;align=center;verticalAlign=middle;whiteSpace=wrap;rounded=0;" vertex="1" parent="r-rebLX8pUsJy-9zKnh2-1">
                    <mxGeometry x="350" y="170" width="60" height="30" as="geometry"/>
                </mxCell>
            </root>
        </mxGraphModel>
    </diagram>
    <diagram id="sM6zePJA3IUJlE9brkEk" name="Page-1">
        <mxGraphModel dx="720" dy="597" grid="1" gridSize="10" guides="1" tooltips="1" connect="1" arrows="1" fold="1" page="1" pageScale="1" pageWidth="850" pageHeight="1100" math="0" shadow="0">
            <root>
                <mxCell id="0"/>
                <mxCell id="1" parent="0"/>
                <mxCell id="20" style="edgeStyle=none;html=1;exitX=1;exitY=1;exitDx=0;exitDy=0;entryX=0;entryY=1;entryDx=0;entryDy=0;" edge="1" parent="1" source="2" target="12">
                    <mxGeometry relative="1" as="geometry"/>
                </mxCell>
                <mxCell id="2" value="" style="rounded=0;whiteSpace=wrap;html=1;fillColor=#d5e8d4;strokeColor=#82b366;" vertex="1" parent="1">
                    <mxGeometry x="40" y="80" width="40" height="280" as="geometry"/>
                </mxCell>
                <mxCell id="19" style="edgeStyle=none;html=1;exitX=1;exitY=1;exitDx=0;exitDy=0;entryX=0;entryY=1;entryDx=0;entryDy=0;" edge="1" parent="1" source="9" target="10">
                    <mxGeometry relative="1" as="geometry"/>
                </mxCell>
                <mxCell id="9" value="784" style="text;html=1;strokeColor=none;fillColor=none;align=center;verticalAlign=middle;whiteSpace=wrap;rounded=0;" vertex="1" parent="1">
                    <mxGeometry x="40" y="50" width="40" height="30" as="geometry"/>
                </mxCell>
                <mxCell id="10" value="64" style="text;html=1;strokeColor=none;fillColor=none;align=center;verticalAlign=middle;whiteSpace=wrap;rounded=0;" vertex="1" parent="1">
                    <mxGeometry x="120" y="130" width="40" height="30" as="geometry"/>
                </mxCell>
                <mxCell id="21" style="edgeStyle=none;html=1;exitX=1;exitY=1;exitDx=0;exitDy=0;entryX=0;entryY=1;entryDx=0;entryDy=0;" edge="1" parent="1" source="12" target="13">
                    <mxGeometry relative="1" as="geometry"/>
                </mxCell>
                <mxCell id="22" style="edgeStyle=none;html=1;exitX=1;exitY=0;exitDx=0;exitDy=0;entryX=0.25;entryY=1;entryDx=0;entryDy=0;" edge="1" parent="1" source="12" target="16">
                    <mxGeometry relative="1" as="geometry"/>
                </mxCell>
                <mxCell id="12" value="" style="rounded=0;whiteSpace=wrap;html=1;fillColor=#d5e8d4;strokeColor=#82b366;" vertex="1" parent="1">
                    <mxGeometry x="120" y="160" width="40" height="120" as="geometry"/>
                </mxCell>
                <mxCell id="23" style="edgeStyle=none;html=1;exitX=1;exitY=1;exitDx=0;exitDy=0;entryX=0;entryY=1;entryDx=0;entryDy=0;" edge="1" parent="1" source="13" target="14">
                    <mxGeometry relative="1" as="geometry"/>
                </mxCell>
                <mxCell id="25" style="edgeStyle=none;html=1;exitX=1;exitY=0;exitDx=0;exitDy=0;entryX=0;entryY=0;entryDx=0;entryDy=0;" edge="1" parent="1" source="13" target="14">
                    <mxGeometry relative="1" as="geometry"/>
                </mxCell>
                <mxCell id="13" value="" style="rounded=0;whiteSpace=wrap;html=1;fillColor=#f8cecc;strokeColor=#b85450;" vertex="1" parent="1">
                    <mxGeometry x="200" y="160" width="40" height="120" as="geometry"/>
                </mxCell>
                <mxCell id="26" style="edgeStyle=none;html=1;exitX=1;exitY=1;exitDx=0;exitDy=0;entryX=0;entryY=1;entryDx=0;entryDy=0;" edge="1" parent="1" source="14" target="15">
                    <mxGeometry relative="1" as="geometry"/>
                </mxCell>
                <mxCell id="27" style="edgeStyle=none;html=1;exitX=1;exitY=0;exitDx=0;exitDy=0;entryX=0;entryY=0;entryDx=0;entryDy=0;" edge="1" parent="1" source="14" target="15">
                    <mxGeometry relative="1" as="geometry"/>
                </mxCell>
                <mxCell id="14" value="" style="rounded=0;whiteSpace=wrap;html=1;fillColor=#d5e8d4;strokeColor=#82b366;" vertex="1" parent="1">
                    <mxGeometry x="280" y="200" width="40" height="40" as="geometry"/>
                </mxCell>
                <mxCell id="15" value="" style="rounded=0;whiteSpace=wrap;html=1;fillColor=#f8cecc;strokeColor=#b85450;" vertex="1" parent="1">
                    <mxGeometry x="360" y="200" width="40" height="40" as="geometry"/>
                </mxCell>
                <mxCell id="16" value="Tahn" style="text;html=1;strokeColor=none;fillColor=none;align=center;verticalAlign=middle;whiteSpace=wrap;rounded=0;" vertex="1" parent="1">
                    <mxGeometry x="190" y="130" width="60" height="30" as="geometry"/>
                </mxCell>
                <mxCell id="17" value="10" style="text;html=1;strokeColor=none;fillColor=none;align=center;verticalAlign=middle;whiteSpace=wrap;rounded=0;" vertex="1" parent="1">
                    <mxGeometry x="270" y="170" width="60" height="30" as="geometry"/>
                </mxCell>
                <mxCell id="18" value="Softmax" style="text;html=1;strokeColor=none;fillColor=none;align=center;verticalAlign=middle;whiteSpace=wrap;rounded=0;" vertex="1" parent="1">
                    <mxGeometry x="350" y="170" width="60" height="30" as="geometry"/>
                </mxCell>
            </root>
        </mxGraphModel>
    </diagram>
</mxfile>